<svg xmlns="http://www.w3.org/2000/svg" viewBox="0 0 20 20">
    <path fill="#000" fill-rule="evenodd" d="M3.827 12.622a6.178 6.178 0 0 1-1.823-4.398c0-1.661.648-3.224 1.823-4.397a6.178 6.178 0 0 1 4.398-1.822c1.661 0 3.224.646 4.398 1.822a6.179 6.179 0 0 1 1.822 4.398 6.173 6.173 0 0 1-1.823 4.397 6.178 6.178 0 0 1-4.398 1.823 6.173 6.173 0 0 1-4.397-1.823zM20 18.582l-5.3-5.3a8.154 8.154 0 0 0 1.748-5.058c0-2.197-.855-4.26-2.408-5.815A8.17 8.17 0 0 0 8.224 0C6.028 0 3.964.856 2.41 2.409A8.168 8.168 0 0 0 0 8.224c0 2.197.855 4.26 2.409 5.815a8.172 8.172 0 0 0 5.815 2.41c1.859 0 3.62-.62 5.058-1.749l5.3 5.3 1.416-1.416.002-.002z"/>
</svg>
